<?xml version="1.0" encoding="UTF-8" standalone="no"?>
<!-- Created with Inkscape (http://www.inkscape.org/) -->

<svg
   version="1.1"
   id="svg9"
   width="423.33334mm"
   height="423.33334mm"
   viewBox="0 0 1600 1600.0001"
   sodipodi:docname="miernik.svg"
   inkscape:version="1.1.2 (b8e25be833, 2022-02-05)"
   xmlns:inkscape="http://www.inkscape.org/namespaces/inkscape"
   xmlns:sodipodi="http://sodipodi.sourceforge.net/DTD/sodipodi-0.dtd"
   xmlns="http://www.w3.org/2000/svg"
   xmlns:svg="http://www.w3.org/2000/svg"
   xmlns:rdf="http://www.w3.org/1999/02/22-rdf-syntax-ns#"
   xmlns:cc="http://creativecommons.org/ns#"
   xmlns:dc="http://purl.org/dc/elements/1.1/">
  <title
     id="title4967">miernik</title>
  <defs
     id="defs13">
    <inkscape:path-effect
       effect="bspline"
       id="path-effect2125"
       is_visible="true"
       lpeversion="1"
       weight="33.333333"
       steps="2"
       helper_size="0"
       apply_no_weight="true"
       apply_with_weight="true"
       only_selected="false" />
  </defs>
  <sodipodi:namedview
     id="namedview11"
     pagecolor="#ffffff"
     bordercolor="#666666"
     borderopacity="1.0"
     inkscape:pageshadow="2"
     inkscape:pageopacity="0.0"
     inkscape:pagecheckerboard="0"
     showgrid="false"
     fit-margin-top="0"
     fit-margin-left="0"
     fit-margin-right="0"
     fit-margin-bottom="0"
     units="mm"
     inkscape:document-units="mm"
     inkscape:zoom="1.0525"
     inkscape:cx="600.95013"
     inkscape:cy="585.27317"
     inkscape:window-width="1920"
     inkscape:window-height="1080"
     inkscape:window-x="0"
     inkscape:window-y="0"
     inkscape:window-maximized="1"
     inkscape:current-layer="g15" />
  <g
     inkscape:groupmode="layer"
     inkscape:label="Image"
     id="g15"
     style="display:inline">
    <path
       style="fill:none;stroke:#000000;stroke-width:1px;stroke-linecap:butt;stroke-linejoin:miter;stroke-opacity:1;opacity:0"
       d="m 427.48092,169.97455 -26.46311,19.33843 -12.21374,29.51654 -7.12468,118.06615 -3.05344,86.514 3.05344,141.47583 11.19593,174.0458 -7.12468,267.6845 -3.05344,108.9058 1.01781,179.1349 3.05344,43.7659 5.08906,31.5522 4.87797,12.5721 9.8959,11.3353 21.2312,13.4944 36.52485,14.0342 31.30702,10.2557 25.72933,4.6781 100.57829,8.8163 91.22218,1.4394 100.57829,-3.5985 40.30329,11.3353 44.62149,4.858 c 0,0 29.50777,-2.1591 35.98508,-2.1591 6.47731,0 38.86389,-7.9167 38.86389,-7.9167 l 40.66311,-1.2595 33.6461,-6.2974 56.3166,-20.6914 41.023,-29.1479 24.11,-25.9093 15.6535,-25.7293 12.055,-21.771 6.6573,-17.2728 9.1762,0.1799 5.9375,-0.5398"
       id="path2117" />
    <path
       style="fill:none;stroke:#000000;stroke-width:1px;stroke-linecap:butt;stroke-linejoin:miter;stroke-opacity:1;opacity:0"
       d="m 1218.8146,1300.6806 1.6193,-4.3182 -0.5398,-4.3182 -1.7992,-2.339 -1.4394,-1.4394 3.5985,-13.1346 5.3978,-30.0475 5.9375,-35.4453 26.1791,-182.6243 -1.7093,-2.339 0.18,-2.8788 2.1591,-0.3599 0.8996,-3.5085 0.3599,-14.9338 11.5891,-305.79308 7.1247,-116.53944 24.4275,-4.58015 12.7226,-7.63359 2.5446,-6.61578 -4.5802,-5.08906 -30.5343,-5.08906 -1.0179,-9.66921 -3.0534,-4.07124 v -2.03563 l 3.0534,-4.58015 1.5268,-8.6514 -4.0713,-158.77863 3.8168,-1.52671 v -4.96183 l -2.9262,-3.68957 -7.6336,-3.43512 -8.7786,-1.39949 -2.4173,-0.5089 0.8906,-96.05598 -1.2723,-1.78117 -0.2544,-3.43512 2.4173,-2.29007 -4.9619,-26.08143 h -1.5267 l -1.145,-0.12723 -4.8346,21.24682 v 4.58016 l 1.5267,1.27226 0.6361,2.29008 -0.1272,2.29007 -1.1451,1.01782 -1.2722,0.63613 -0.3817,1.78117 -1.5267,94.78371 -11.9593,0.89059 -8.3969,2.54453 -3.3079,4.19847 -0.3817,3.05344 c 0,0 2.4173,2.79898 2.4173,3.68956 0,0.89059 -15.2672,165.39441 -15.2672,165.39441 l 1.654,3.18066 0.3816,5.34351 -4.1984,4.19847 -0.3817,5.34351 -28.7225,6.96014 -3.5985,3.23866 -1.2595,7.01709 1.4394,4.85799 2.339,4.13828 4.858,0.7197 7.3769,3.23866 5.2179,0.35985 10.6156,0.7197 1.6193,0.17993 0.1799,3.5985 -17.6327,432.00087 1.7993,5.0379 -2.519,3.4186 -18.5323,256.2137 -7.3769,3.5986 -0.18,5.5776 5.2179,4.6781 6.4773,3.0587 1.6193,1.4394 -7.197,20.1517 -8.6364,16.733 -11.8751,20.3316 -20.3316,22.4907 -22.3107,16.1933 -25.7293,14.394 -26.2691,9.716 -22.3108,5.0379 c 0,0 -0.8996,-1.7993 -0.8996,-1.0796 0,0.7197 19.4319,-18.1724 19.4319,-18.1724 l 27.7085,-34.3658 14.0342,-22.6706 9.8959,-22.3107 11.1554,-30.2275 7.0171,-33.4661 12.2349,0.7197 3.9584,-2.8788 V 1253.9 l -1.6194,-4.1382 -2.1591,-0.8997 6.8372,-54.6973 5.0379,-71.2504 4.4981,-137.10319 -1.9791,-2.8788 1.7992,-3.77844 c 0,0 1.0796,-2.51895 1.0796,-1.79925 0,0.7197 -0.8997,-125.58792 -0.8997,-125.58792 l 5.3978,-301.37503 13.1346,-0.89963 15.8334,-4.31821 5.3978,-5.39776 1.9791,-7.37694 -2.1591,-4.31821 -12.5947,-4.85799 -18.7123,-3.5985 -0.5398,-5.57769 -3.2386,-4.13828 0.5398,-5.93754 2.6988,-2.15911 -8.9962,-163.37225 4.4981,-4.49814 -1.4394,-4.31821 -7.3769,-4.13828 -12.7747,-2.51896 h -1.4394 v -98.05933 l -1.4395,-1.25948 v -4.13828 l 2.6989,-1.25948 0.5398,-8.09664 -3.4186,-17.63269 -3.9583,-0.89963 -5.5777,23.03045 v 2.69888 l 2.8788,2.69888 0.3598,4.13829 -2.8788,0.89962 -0.7197,96.97979 -10.4356,1.25948 -10.0759,3.5985 -1.9791,6.11747 1.2594,4.49813 1.9792,1.79926 -11.6951,158.69419 2.5189,3.77843 0.3599,7.19702 -3.9584,3.05873 -0.7197,5.93754 -20.6914,5.03791 -8.2766,3.59851 -3.2386,4.49813 v 6.83717 l 2.8788,4.49813 c 0,0 3.9583,1.25948 5.2178,2.33903 1.2595,1.07955 6.4773,1.07955 6.4773,1.07955 l 10.0758,2.15911 5.5777,0.35985 2.3391,0.53977 1.0795,202.23614 -1.7992,225.98629 1.0795,4.49814 1.7993,1.25948 -3.5985,1.97917 4.4981,85.82442 1.0795,104.7166 -3.0587,68.0118 -4.1383,3.2386 -2.1591,2.519 1.4394,2.5189 3.0588,1.9792 9.7159,2.6989 0.7197,1.9792 -3.4186,19.9717 -6.4773,22.8505 -12.5947,30.4074 -16.5532,27.1687 -26.9888,30.9472 -29.6877,21.0513 -31.307,12.9546 -9.17619,2.519 -12.23493,-2.6989 33.64605,-15.2937 14.75388,-9.8959 12.95459,-13.8542 5.5777,-15.8335 5.2179,-25.1895 4.4981,-102.9173 1.2595,-99.4988 -2.6989,-131.8853 -6.2974,-172.18859 1.7993,-80.42665 8.4565,-130.80575 4.4981,-200.07704 -8.4565,-190.00121 -5.5777,-35.4453 -7.7368,-12.7747 -11.15536,-10.07583 -15.47358,-6.65723 -56.85643,-5.39777 -123.42881,-8.09664 -186.04286,0.35985 -189.48324,12.35991 v 0"
       id="path2119" />
    <path
       style="fill:none;stroke:#000000;stroke-width:1px;stroke-linecap:butt;stroke-linejoin:miter;stroke-opacity:1;opacity:0"
       d="m 487.95766,298.67615 432.54063,-1.43941 1.43941,134.5842 -437.57855,0.7197 z"
       id="path2121" />
    <path
       style="fill:none;stroke:#000000;stroke-width:1px;stroke-linecap:butt;stroke-linejoin:miter;stroke-opacity:1;opacity:0"
       d="m 824.42748,616.79389 c 13.31222,17.27073 26.62358,34.54035 37.11759,51.8118 10.49401,17.27145 18.17067,34.54394 23.2084,54.09599 5.03772,19.55206 7.43668,41.38258 5.03745,62.85363 -2.39924,21.47105 -9.59611,42.58187 -17.9927,60.33447 -8.3966,17.75261 -17.99242,32.14635 -30.34733,45.70071 -12.35491,13.55435 -27.46834,26.26882 -47.2601,36.34466 -19.79176,10.07584 -44.26113,17.5126 -63.33315,20.87133 -19.07202,3.35872 -32.74608,2.63904 -48.69958,-0.11974 -15.9535,-2.75877 -34.18558,-7.55669 -47.495,-12.36369 -13.30942,-4.807 -21.69549,-9.62316 -32.2501,-17.12035 -10.55461,-7.49719 -23.277,-17.6751 -34.13389,-29.04066 -10.8569,-11.36557 -19.84739,-23.91833 -27.14195,-37.95576 -7.29456,-14.03744 -12.89241,-29.55876 -16.20048,-43.63869 -3.30807,-14.07992 -4.32586,-26.71749 -4.45316,-38.42251 -0.12729,-11.70502 0.63605,-22.47664 2.96851,-34.86028 2.33247,-12.38365 6.234,-26.37828 12.72265,-40.7128 6.48865,-14.33453 15.56395,-29.00768 23.36731,-39.77972 7.80337,-10.77203 14.3342,-17.64212 21.41664,-23.91876 7.08245,-6.27664 14.71587,-11.95931 22.22238,-16.96362 7.50651,-5.00431 14.8855,-9.32993 23.4947,-13.40123 8.6092,-4.0713 18.44785,-7.88801 28.32936,-10.51733 9.88151,-2.62932 19.80497,-4.07119 30.44975,-5.08897 10.64478,-1.01778 22.01011,-1.6115 31.17056,-1.61142 9.16044,8e-5 16.11535,0.59379 22.64642,1.65413 6.53107,1.06033 12.63782,2.58702 18.74475,4.28343 6.10694,1.69641 12.21369,3.56236 18.87195,6.23425 6.65826,2.6719 13.86762,6.14936 21.16199,10.30556 7.29437,4.1562 14.67336,8.99071 21.75564,14.4616 7.08229,5.4709 13.86757,11.57765 20.65193,17.68357"
       id="path2123"
       inkscape:path-effect="#path-effect2125"
       inkscape:original-d="m 824.42748,616.79389 c 13.31236,17.27062 26.62373,34.54024 39.93409,51.80886 7.67797,17.27418 15.35464,34.54667 23.03045,51.81851 2.40006,21.83238 4.79901,43.6629 7.19702,65.49284 -7.19616,21.11267 -14.39303,42.22349 -21.59105,63.33374 -9.59521,14.39532 -19.19104,28.78906 -28.78806,43.18209 -15.11304,12.71599 -30.22647,25.43046 -45.3412,38.14419 -24.46934,7.43806 -48.93871,14.87483 -73.40956,22.31074 -13.6736,-0.71871 -27.34766,-1.4384 -41.02299,-2.1591 -18.2318,-4.79711 -36.46388,-9.59502 -54.69732,-14.39403 -8.3854,-4.81536 -16.77147,-9.63152 -25.15871,-14.44878 -12.7219,-10.17732 -25.44429,-20.35523 -38.16794,-30.53435 -8.98985,-12.55226 -17.98034,-25.10502 -26.97201,-37.65903 -5.59707,-15.52094 -11.19492,-31.04226 -16.79389,-46.56489 -1.01683,-12.63708 -2.03462,-25.27465 -3.05343,-37.91348 0.76437,-10.77106 1.52771,-21.54268 2.29007,-32.31552 3.90269,-13.9942 7.80423,-27.98883 11.70484,-41.98474 9.07667,-14.67274 18.15197,-29.3459 27.22646,-44.02035 6.53209,-6.86937 13.06292,-13.73946 19.59288,-20.61069 7.63474,-5.6819 15.26817,-11.36456 22.90076,-17.04835 7.38028,-4.32478 14.75927,-8.6504 22.1374,-12.9771 9.84005,-3.81587 19.6787,-7.63258 29.51654,-11.45038 9.92487,-1.44093 19.84833,-2.8828 29.771,-4.3257 11.36679,-0.59273 22.73212,-1.18644 34.09669,-1.78117 6.95618,0.59474 13.91109,1.18845 20.86514,1.78117 6.10799,1.52775 12.21474,3.05444 18.32061,4.58016 6.10799,1.86702 12.21474,3.73297 18.32061,5.59796 7.21064,3.47859 14.42,6.95605 21.6285,10.43257 7.38028,4.8357 14.75927,9.67021 22.1374,14.50382 6.78655,6.10799 13.57183,12.21474 20.35624,18.32061" />
    <path
       style="fill:none;stroke:#000000;stroke-width:1px;stroke-linecap:butt;stroke-linejoin:miter;stroke-opacity:1;opacity:0"
       d="m 738.9313,611.70483 31.55216,9.16031 -86.9469,308.98928 -55.9568,-20.15165 z"
       id="path2131" />
    <path
       style="opacity:1;fill:#266dd3;fill-opacity:1;stroke-width:1.90024"
       d="m 870.30881,1454.762 c -10.45131,-1.3687 -27.11438,-4.8563 -37.02902,-7.7502 l -18.02666,-5.2616 -40.8807,1.3883 c -76.56614,2.6001 -143.96362,1.3512 -201.32463,-3.7307 -61.83574,-5.4784 -73.26244,-7.4682 -103.68912,-18.0566 -44.58043,-15.5138 -66.38224,-28.8192 -73.1702,-44.6549 -1.86873,-4.3595 -4.98226,-18.9638 -6.91897,-32.4539 -5.30726,-36.9676 -4.86915,-263.6671 0.8894,-460.21606 l 4.24685,-144.95231 -6.0237,-89.72703 c -5.60645,-83.51189 -6.03345,-97.29543 -6.16445,-198.99069 -0.12013,-93.24702 0.46415,-118.17727 3.98589,-170.07127 4.01878,-59.21826 4.28173,-61.18702 10.0603,-75.32416 5.52718,-13.52212 6.85423,-15.18184 19.37189,-24.22803 7.39102,-5.34131 14.80633,-9.71631 16.47847,-9.72223 1.67213,-0.006 41.52006,-2.53898 88.55094,-5.62903 76.9733,-5.05734 96.13499,-5.64101 191.92399,-5.84603 91.08711,-0.19496 114.76061,0.35857 164.37055,3.84325 81.81287,5.74666 106.23875,8.38696 114.04569,12.32769 8.92553,4.50538 18.57437,13.83005 22.68017,21.91821 5.7153,11.25881 7.7518,33.49313 12.2706,133.96675 4.1954,93.28483 4.2659,100.78833 1.8819,200.47506 -1.3623,56.95962 -4.1803,128.7886 -6.2624,159.61996 -6.0248,89.21438 -6.6811,135.71977 -3.205,227.07839 4.8779,128.19823 6.403,222.24833 4.8069,296.43703 -2.4774,115.1595 -4.0526,135.5825 -12.4169,160.9899 -4.2754,12.987 -17.76953,24.2734 -44.44012,37.1693 -19.15576,9.2623 -21.30666,10.7627 -17.15181,11.9644 9.41398,2.7229 16.01651,1.6326 34.13754,-5.6376 33.54489,-13.4583 62.52369,-38.9207 83.50179,-73.3696 15.2545,-25.05 27.1272,-57.3106 29.8062,-80.9902 1.101,-9.7313 0.8487,-11.1713 -1.9568,-11.1713 -1.7714,0 -4.9457,-0.9232 -7.054,-2.0515 -3.6656,-1.9617 -3.6875,-2.2124 -0.5015,-5.7329 3.0457,-3.3655 3.3931,-10.8948 4.048,-87.7347 0.4651,-54.5724 -0.157,-99.5962 -1.7733,-128.3678 -1.3693,-24.3729 -2.3537,-44.4679 -2.1875,-44.65555 1.2038,-1.35933 2.1871,-274.70874 1.2498,-347.43987 l -1.1671,-90.56664 -8.719,-1.22198 c -15.0144,-2.10431 -20.9722,-4.71451 -22.2338,-9.74108 -1.7077,-6.80429 1.7963,-9.64184 16.623,-13.4613 11.7251,-3.02045 13.6449,-4.16084 16.2514,-9.6537 1.8486,-3.89568 2.5112,-8.45133 1.7688,-12.16279 -0.6527,-3.26378 1.2925,-40.6607 4.3228,-83.10425 3.0303,-42.44356 5.3842,-80.08158 5.2311,-83.64007 -0.2927,-6.79862 0.6007,-7.44801 14.4483,-10.50215 l 5.2257,-1.15254 0.015,-35.59325 c 0.01,-19.57629 0.8469,-42.83501 1.8644,-51.68604 1.0187,-8.86089 1.1227,-16.82013 0.2316,-17.71129 -0.8912,-0.89115 -0.3068,-6.82589 1.3004,-13.20627 2.5519,-10.13041 3.1272,-11.02491 4.5746,-7.11232 1.6456,4.44863 2.1552,13.68517 1.256,22.76875 -0.2586,2.61283 -0.306,27.08786 -0.1053,54.38896 l 0.3642,49.63837 7.1259,1.14637 c 3.9193,0.63051 9.0339,2.48727 11.3658,4.12615 3.5565,2.49949 3.8777,3.55988 1.9923,6.57879 -1.7464,2.79652 -1.3318,21.31496 1.8596,83.05257 2.2589,43.69948 3.6509,82.01891 3.0932,85.15431 -1.5128,8.50555 1.9951,15.84133 8.2252,17.20089 13.1663,2.87318 25.6867,7.39128 26.5232,9.57112 2.841,7.40347 -8.2114,14.75561 -25.6619,17.0705 -9.4488,1.25341 -9.8205,1.52699 -9.8275,7.23365 0,3.26202 -1.3504,74.33952 -2.992,157.94997 -1.6415,83.61045 -2.8336,177.24466 -2.6491,208.07601 0.1845,30.83136 0.1999,58.19478 0.034,60.80761 -0.1657,2.61282 -1.1447,34.25177 -2.1754,70.30877 -2.0351,71.1859 -5.705,129.4393 -10.586,168.0318 -2.2701,17.9493 -2.5726,25.9789 -1.1232,29.8187 2.4657,6.5325 1.6396,7.3752 -7.2305,7.3752 h -7.0935 l -3.1254,14.7268 c -5.8759,27.6875 -19.7191,63.1127 -32.5474,83.2901 -9.6042,15.1063 -27.2298,36.9893 -42.1611,52.3449 -6.7356,6.9271 -11.4984,13.057 -10.5841,13.6221 2.3543,1.455 22.3194,-3.4066 37.831,-9.2121 27.5708,-10.3187 56.2614,-29.2817 72.4326,-47.8741 11.9155,-13.6996 27.6368,-40.7862 32.9641,-56.7946 3.9855,-11.9766 3.7754,-15.8988 -0.852,-15.8988 -1.3441,0 -4.0507,-1.7757 -6.0147,-3.946 -3.5076,-3.8758 -3.4934,-4.0044 0.8002,-7.2431 4.307,-3.2488 4.5104,-5.1789 13.8525,-131.446 5.2146,-70.4819 9.9167,-139.2652 10.4489,-152.85189 0.5322,-13.5867 4.5993,-112.7791 9.0379,-220.42756 4.4386,-107.64846 7.7035,-196.79335 7.2554,-198.09977 -0.4639,-1.35223 -4.2057,-2.43757 -8.6875,-2.51986 -11.723,-0.21526 -20.8885,-4.12945 -22.8882,-9.77456 -2.6077,-7.36162 -0.4321,-10.23557 9.628,-12.7184 22.4484,-5.5403 23.4398,-5.94748 23.4398,-9.62762 0,-1.98829 0.9318,-4.19103 2.0709,-4.89495 1.2147,-0.75077 1.5982,-3.79922 0.9276,-7.37391 -0.6288,-3.3517 2.2413,-42.4586 6.3779,-86.90419 4.1366,-44.44561 7.059,-82.5773 6.4942,-84.73709 -1.22,-4.66527 2.9222,-7.36661 14.0162,-9.14062 l 7.5599,-1.20887 1.2205,-21.17942 c 0.6712,-11.64868 1.2243,-33.19367 1.2291,-47.87776 0.01,-16.76297 0.7813,-27.47099 2.0849,-28.77461 1.4513,-1.45131 1.485,-3.18121 0.1118,-5.74704 -2.6137,-4.8837 1.8165,-23.76155 4.5709,-19.47728 0.9885,1.53764 2.0814,29.62365 2.4374,62.63809 0.6741,62.51913 0.6896,62.62532 9.1204,62.68567 2.2358,0.0152 6.056,1.64129 8.4895,3.61176 3.6349,2.94339 4.0037,4.08962 2.0666,6.4236 -1.8718,2.25539 -1.9028,19.55504 -0.1507,83.93741 1.7757,65.24561 1.7356,81.97748 -0.2052,85.60384 -1.9594,3.66119 -1.9369,6.11711 0.1197,13.08247 2.7295,9.24424 3.2816,9.56523 20.2599,11.77952 11.2357,1.46535 16.8306,4.66029 15.2723,8.72116 -1.5476,4.03316 -16.0447,10.7421 -28.1274,13.0168 l -10.5145,1.97945 -3.1669,51.73228 c -1.7418,28.45273 -5.8286,124.8439 -9.0816,214.20257 -3.2531,89.35867 -6.6418,166.74588 -7.5304,171.97148 -0.8887,5.2257 -6.4802,44.9881 -12.4257,88.3611 -11.2591,82.1369 -21.8643,150.0364 -26.6757,170.7912 -2.0996,9.0571 -2.2684,12.7739 -0.6677,14.7026 3.8511,4.6403 0.4862,8.3304 -7.5964,8.3304 -6.1656,0 -7.7647,0.7759 -8.8119,4.2755 -2.0051,6.7012 -14.8413,31.4433 -23.9494,46.163 -13.0707,21.1238 -29.0747,37.6803 -52.3889,54.1976 -18.5592,13.1485 -24.9256,16.419 -49.4061,25.3807 -32.7386,11.9848 -49.905,15.6449 -81.30837,17.3361 -12.54157,0.6754 -30.07126,2.7997 -38.95487,4.7207 -21.77125,4.7079 -60.67455,6.054 -84.56057,2.9259 z M 748.62107,946.40202 c 38.06602,-10.43491 60.5243,-22.32971 84.04664,-44.51451 25.95084,-24.47519 44.02644,-55.47569 54.32595,-93.17148 0.62953,-2.30407 1.16934,-4.44993 1.6306,-6.54916 0.99045,-4.50765 1.61873,-8.80029 1.99552,-13.98271 0.39474,-5.42936 0.51345,-11.8353 0.48339,-20.48818 -0.17079,-49.16498 -12.35383,-80.69857 -51.49998,-133.29847 -3.28087,-4.40844 -5.30029,-5.3693 -7.36092,-10.666 -1.29254,-3.32238 3.75726,5.85109 3.19903,5.42422 -1.21611,-0.92994 -7.02695,-7.47081 -7.67349,-6.20521 -0.47905,0.93774 7.06957,-9.74434 7.14879,-0.0772 0.037,4.51353 -10.45153,-0.77573 -20.30373,-8.31994 -20.82211,-15.94431 -57.59377,-29.67343 -86.43146,-32.27018 -17.86474,-1.60867 -58.05672,2.10064 -75.73967,6.98999 -26.3653,7.29003 -58.55658,26.22565 -78.6781,46.28021 -19.65783,19.59241 -39.8889,55.15563 -48.70796,85.6213 -3.79847,13.12194 -4.38987,19.39578 -4.38531,46.52133 0.006,33.89906 1.33148,41.44964 12.24888,69.75941 18.0654,46.84513 65.25572,90.26748 113.26969,104.22553 39.12427,11.37373 72.54453,12.91407 102.43213,4.7211 z M 922.56534,364.84561 V 296.43706 H 705.1162 c -205.47348,0 -217.50035,0.18315 -218.37876,3.32542 -0.51128,1.82898 -1.51274,32.61282 -2.22548,68.40855 l -1.29588,65.08314 h 219.67464 219.67462 z"
       id="path1025"
       sodipodi:nodetypes="cscsssssscssssssssssssssssssssssssssssscssssssssccsssssccsssssssscssssssscssssssssssssssssssssssscscsssscsssssssscsssssssssssssccsssssssssssssssscsssccssscccc" />
    <path
       style="opacity:1;fill:#266dd3;fill-opacity:1;stroke-width:1.90110242;stroke:#006dd3;stroke-opacity:1;stroke-miterlimit:4;stroke-dasharray:none"
       d="m 655.58196,918.15643 c -20.74153,-7.53689 -24.60272,-9.55014 -24.07722,-12.55398 0.82261,-4.70215 106.80834,-288.57341 108.39239,-290.31722 0.67041,-0.73803 7.42694,0.46909 15.0145,2.68248 10.73967,3.1329 13.587,4.69293 12.85395,7.04258 -2.32496,7.45226 -84.63017,300.54962 -84.63017,301.37679 0,1.62904 -2.35795,0.92468 -27.55345,-8.23065 z"
       id="path2065" />
  </g>
  <metadata
     id="metadata4965">
    <rdf:RDF>
      <cc:Work
         rdf:about="">
        <dc:title>miernik</dc:title>
      </cc:Work>
    </rdf:RDF>
  </metadata>
</svg>
