<?xml version="1.0" encoding="UTF-8" standalone="no"?>
<!-- Created with Inkscape (http://www.inkscape.org/) -->
<svg
   version="1.1"
   id="svg12"
   width="212.31133"
   height="164.3148"
   viewBox="0 0 212.31132 164.31481"
   sodipodi:docname="warszawa.svg"
   inkscape:version="1.1.2 (b8e25be833, 2022-02-05)"
   xmlns:inkscape="http://www.inkscape.org/namespaces/inkscape"
   xmlns:sodipodi="http://sodipodi.sourceforge.net/DTD/sodipodi-0.dtd"
   xmlns="http://www.w3.org/2000/svg"
   xmlns:svg="http://www.w3.org/2000/svg">
  <defs
     id="defs16" />
  <sodipodi:namedview
     id="namedview14"
     pagecolor="#ffffff"
     bordercolor="#666666"
     borderopacity="1.0"
     inkscape:pageshadow="2"
     inkscape:pageopacity="0.0"
     inkscape:pagecheckerboard="0"
     showgrid="false"
     inkscape:zoom="4.4115581"
     inkscape:cx="107.78505"
     inkscape:cy="91.124268"
     inkscape:window-width="1920"
     inkscape:window-height="1046"
     inkscape:window-x="-11"
     inkscape:window-y="-11"
     inkscape:window-maximized="1"
     inkscape:current-layer="g18" />
  <g
     inkscape:groupmode="layer"
     inkscape:label="Image"
     id="g18"
     transform="translate(-151.41841,-186.71583)">
    <path id="w1"
       style="fill:#ffffff;stroke:#000000;stroke-width:1px;stroke-linecap:butt;stroke-linejoin:miter;stroke-opacity:1"
       d="m 229.68847,244.91555 18.43278,-0.96171 3.68655,7.85396 -3.04541,2.24399 3.52627,7.5334 8.97596,-2.24399 2.40428,5.12912 h 7.53339 l 0.96171,10.7391 -1.12199,3.68656 3.04541,8.4951 -11.38023,1.28228 -13.30366,10.41853 -5.12912,-2.72484 -6.89226,1.92342 -5.44969,-11.05967 -10.7391,-5.77026 -0.48085,-7.05255 c 0,0 1.28228,-8.33482 1.28228,-7.69368 0,0.64114 1.28228,-12.02138 1.28228,-12.02138 l 7.05254,-3.52627 z"
        />
    <path id="w2"
       style="fill:#000080;stroke:#000000;stroke-width:1px;stroke-linecap:butt;stroke-linejoin:miter;stroke-opacity:1"
       d="m 165.47442,251.38511 -2.26678,-13.37396 14.054,-12.46725 14.73402,-15.86741 -0.90671,-7.70703 5.21358,-6.34697 8.61373,0.68004 3.40016,-9.06709 12.24058,0.68003 1.81341,4.9869 2.94681,0.22667 3.85351,4.98691 -0.45335,2.9468 3.40016,3.62684 6.12028,0.22667 -0.68003,2.72013 7.48035,3.17348 12.24058,-7.70702 -1.81342,7.02699 4.08019,0.90671 -0.90671,2.26677 -7.70703,-0.45335 -2.72013,7.25367 5.21358,3.62684 -1.81342,5.89361 3.40016,2.04009 0.90671,6.57364 -3.40016,-0.45335 2.26678,4.53355 -3.91019,6.4603 -2.75383,-4.82448 -18.43278,0.96171 0.64114,6.25111 -7.05254,3.52627 -2.56456,19.71506 0.48085,3.68656 -13.62423,1.28228 -9.93767,2.56456 -5.44969,4.48798 -11.38024,-0.16028 -1.122,-7.69368 -5.12912,0.16028 -0.64114,-7.85397 -14.10508,0.96171 -7.69368,-12.18166 z"
        />
    <path id="w3"
       style="fill:#00ffff;stroke:#000000;stroke-width:1px;stroke-linecap:butt;stroke-linejoin:miter;stroke-opacity:1"
       d="m 174.55041,278.73569 -1.12199,4.64827 -6.09083,-3.2057 -4.80856,5.60997 2.24399,9.77739 6.73198,14.26537 -0.32057,3.36599 16.66964,0.32057 -0.32057,14.10508 4.16741,5.93055 6.09083,-1.60285 17.09832,-1.0015 3.17349,4.9869 11.78721,-2.26677 4.0802,4.08019 14.50734,-3.17348 20.85431,9.06709 4.53355,-18.58754 -7.25368,-15.86741 V 298.3073 l -3.86529,-9.63394 -13.30366,10.41853 -5.12912,-2.72484 -6.89226,1.92342 -5.44969,-11.05967 -10.7391,-5.77026 v -3.36599 l -13.62423,1.28228 -9.93767,2.56456 -5.44969,4.48798 -11.38024,-0.16028 -1.122,-7.69368 z"
        />
    <path id="w4"
       style="fill:#000080;stroke:#000000;stroke-width:1px;stroke-linecap:butt;stroke-linejoin:miter;stroke-opacity:1"
       d="m 269.29261,343.64276 v 0 l 4.47424,6.74035 18.91364,-9.61711 7.05254,-1.60285 v -15.06679 l 13.78452,-11.86109 8.97596,2.24399 c 0,0 11.86109,12.8228 15.38736,11.54052 3.52627,-1.28228 12.82281,-3.52627 12.82281,-3.52627 l 12.50223,-23.40162 -1.92342,-10.25824 -5.12912,-3.84684 6.09083,-10.57882 -6.09083,-6.4114 -1.92342,4.16741 -11.54053,-7.37311 -1.60285,-8.01425 -8.01425,-6.4114 9.29653,-2.56456 -6.73197,-4.80855 -2.24399,-6.73198 -3.84684,1.28228 -10.57881,3.20571 -0.64114,4.16741 -7.05255,-0.64114 0.96172,1.92342 -7.69369,3.52627 -2.88513,7.69368 -11.21995,-1.60285 8.65539,7.05254 -5.44969,0.64114 -1.92342,1.28228 -8.97596,-2.24399 -5.44969,-1.92342 -6.09084,3.84684 0.96171,10.7391 -1.12199,3.68656 3.04541,8.4951 -11.38023,1.28228 3.86529,9.63394 v 10.88051 l 7.25368,15.86741 z"
        />
    <path id="w5"
       style="fill:#00ffff;stroke:#000000;stroke-width:1px;stroke-linecap:butt;stroke-linejoin:miter;stroke-opacity:1"
       d="m 250.87508,248.77832 0.93272,3.02948 -3.04541,2.24399 3.52627,7.5334 8.97596,-2.24399 2.40428,5.12912 h 7.53339 l 6.09084,-3.84684 14.42565,4.16741 1.92342,-1.28228 5.44969,-0.64114 -8.65539,-7.05254 11.21995,1.60285 2.88513,-7.69368 7.69369,-3.52627 -0.96172,-1.92342 7.05255,0.64114 0.64114,-4.16741 14.42565,-4.48799 -8.33482,-14.42565 8.97596,1.60285 -0.96171,-6.09083 -2.0837,-4.3277 -2.08371,2.08371 -5.12912,-0.80143 -6.09083,-7.37311 0.32057,-3.2057 -5.77026,-1.28228 -1.28229,7.5334 2.88514,0.64114 v 2.40427 l -4.16742,-0.96171 -7.69368,9.77739 -10.25824,-0.32057 -5.77026,-6.73197 -5.12912,-3.68656 -14.26537,-1.44256 -7.00854,1.38371 -0.90671,2.26677 -7.70703,-0.45335 -2.72013,7.25367 5.21358,3.62684 -1.81342,5.89361 3.40016,2.04009 0.90671,6.57364 -3.40016,-0.45335 2.26678,4.53355 z"
       
       sodipodi:nodetypes="cccccccccccccccccccccccccccccccccccccccccccccccc" />
    <path id="w6"
       style="opacity:0.311111;fill:#ffff00;fill-opacity:0;stroke-width:0.32057"
       d="m 258.86035,338.34031 c -5.37757,-2.34924 -10.06591,-4.28012 -10.41853,-4.29086 -0.35263,-0.0107 -3.71525,0.65388 -7.4725,1.47691 l -6.83136,1.49642 -2.06396,-2.04561 -2.06396,-2.04561 -5.2256,1.03209 c -2.87408,0.56765 -5.51787,1.03209 -5.8751,1.03209 -0.45968,0 -1.09862,-0.70898 -2.18629,-2.42598 -1.52095,-2.40096 -1.54882,-2.42424 -2.70066,-2.25703 -0.64012,0.0929 -4.48175,0.33265 -8.53696,0.53273 -5.8886,0.29054 -7.9759,0.51907 -10.36696,1.13504 -1.64662,0.42419 -3.03117,0.77125 -3.07679,0.77125 -0.0456,0 -0.91054,-1.20593 -1.92205,-2.67984 l -1.8391,-2.67983 0.10734,-7.21964 0.10734,-7.21964 -8.26893,-0.2335 -8.26893,-0.2335 0.0693,-1.51848 c 0.0608,-1.33287 -0.3444,-2.39641 -3.31499,-8.70052 -3.07447,-6.52456 -3.47804,-7.60097 -4.40846,-11.75838 l -1.02418,-4.57634 2.01672,-2.31591 c 1.1092,-1.27376 2.0514,-2.36898 2.09377,-2.43383 0.0424,-0.0649 1.52029,0.62342 3.28423,1.5295 l 3.20717,1.64741 0.30458,-1.20893 c 0.16752,-0.66491 0.43123,-1.78595 0.58602,-2.49121 l 0.28143,-1.28228 1.99273,-0.0954 c 1.096,-0.0525 2.00349,-0.0525 2.01663,0 0.0131,0.0525 0.26746,1.75439 0.56515,3.782 l 0.54126,3.68655 6.08668,0.16186 6.08667,0.16186 2.88513,-2.2791 2.88513,-2.27911 5.12913,-1.30142 c 3.98739,-1.01173 6.41356,-1.41524 10.89938,-1.81275 3.17364,-0.28124 5.87055,-0.50998 5.99312,-0.50832 0.12258,0.002 0.26683,0.67791 0.32057,1.50278 l 0.0977,1.49976 5.41898,2.93031 5.41899,2.93031 2.85157,5.69609 c 1.7892,3.574 2.99756,5.64007 3.24344,5.54572 0.21554,-0.0827 1.8098,-0.53666 3.5428,-1.00879 l 3.15092,-0.8584 2.55215,1.32777 c 1.40368,0.73028 2.72347,1.26172 2.93287,1.18099 0.2094,-0.0807 3.16136,-2.32837 6.5599,-4.99477 6.07154,-4.76355 6.18447,-4.83406 6.48328,-4.04813 0.16725,0.43992 0.95698,2.3939 1.75493,4.34217 l 1.45084,3.54232 v 5.45504 5.45505 l 3.5869,7.86053 3.5869,7.86054 -2.02114,8.38787 c -1.11164,4.61334 -2.11265,8.5507 -2.22449,8.7497 -0.13412,0.23866 -3.53143,-1.09209 -9.98071,-3.90951 z"
        />
  </g>
</svg>
